# AST/ASF file generated using VICON BodyLanguage
# -----------------------------------------------
:version 1.10
:name VICON
:units
  mass 1.0
  length 0.45
  angle deg
:documentation
   .ast/.asf automatically generated from VICON data using
   VICON BodyBuilder and BodyLanguage model FoxedUp or BRILLIANT.MOD
:root
   order TX TY TZ RX RY RZ
   axis XYZ
   position 0 0 0  
   orientation 0 0 0 
:bonedata
  begin
     id 1 
     name lhipjoint
     direction 0.537252 -0.787203 0.302774 
     length 2.29576 
     axis 0 0 0  XYZ
  end
  begin
     id 2 
     name lfemur
     direction 0.34202 -0.939693 0  
     length 7.31114  
     axis 0 0 20  XYZ
    dof rx ry rz
    limits (-160.0 20.0)
           (-70.0 70.0)
           (-60.0 70.0)
  end
  begin
     id 3 
     name ltibia
     direction 0.34202 -0.939693 0   
     length 8.36008   
     axis 0 0 20   XYZ
    dof rx
    limits (-10.0 170.0)
  end
  begin
     id 4 
     name lfoot
     direction 0.0969116 -0.266263 0.959016   
     length 2.16704   
     axis -90 7.62852e-016 20   XYZ
    dof rx rz
    limits (-45.0 90.0)
           (-70.0 20.0)
  end
  begin
     id 5 
     name ltoes
     direction 1.53563e-011 -4.21779e-011 1   
     length 1.08338   
     axis -90 7.62852e-016 20   XYZ
    dof rx
    limits (-90.0 20.0)
  end
  begin
     id 6 
     name rhipjoint
     direction -0.588228 -0.754791 0.290308   
     length 2.39434  
     axis 0 0 0  XYZ 
  end
  begin
     id 7 
     name rfemur
     direction -0.34202 -0.939693 0   
     length 7.45207   
     axis 0 0 -20   XYZ
    dof rx ry rz
    limits (-160.0 20.0)
           (-70.0 70.0)
           (-70.0 60.0)
  end
  begin
     id 8 
     name rtibia
     direction -0.34202 -0.939693 0   
     length 8.03565   
     axis 0 0 -20   XYZ
    dof rx
    limits (-10.0 170.0)
 end
 begin
     id 9 
     name rfoot
     direction -0.107009 -0.294004 0.949795   
     length 2.11509  
     axis -90 -7.62852e-016 -20   XYZ
    dof rx rz
    limits (-45.0 90.0)
           (-20.0 70.0)
  end
  begin
     id 10 
     name rtoes
     direction -1.53533e-011 -4.22004e-011 1   
     length 1.05493   
     axis -90 -7.62852e-016 -20   XYZ
    dof rx
    limits (-90.0 20.0)
  end
  begin
     id 11 
     name lowerback
     direction -0.0115208 0.997969 -0.0626515   
     length 2.03153   
     axis 0 0 0   XYZ
    dof rx ry rz
    limits (-20.0 45.0)
           (-30.0 30.0)
           (-30.0 30.0)
  end
  begin
     id 12 
     name upperback
     direction -0.00423475 0.999974 -0.00583614   
     length 2.03619   
     axis 0 0 0   XYZ
    dof rx ry rz
    limits (-20.0 45.0)
           (-30.0 30.0)
           (-30.0 30.0)
  end
  begin
     id 13 
     name thorax
     direction 0.00289429 0.999728 0.0231573   
     length 2.03921   
     axis 0 0 0   XYZ
    dof rx ry rz
    limits (-20.0 45.0)
           (-30.0 30.0)
           (-30.0 30.0)
  end
  begin
     id 14 
     name lowerneck
     direction 0.0188995 0.987777 0.154721   
     length 1.78836   
     axis 0 0 0   XYZ
    dof rx ry rz
    limits (-20.0 45.0)
           (-30.0 30.0)
           (-30.0 30.0)
  end
  begin
     id 15 
     name upperneck
     direction -0.00612612 0.992995 -0.118   
     length 1.81789   
     axis 0 0 0   XYZ
    dof rx ry rz
    limits (-20.0 45.0)
           (-30.0 30.0)
           (-30.0 30.0)
  end
  begin
     id 16
     name head
     direction -0.00420226 0.998397 -0.0564482  
     length 1.82234  
     axis 0 0 0   XYZ
    dof rx ry rz
    limits (-20.0 45.0)
           (-30.0 30.0)
           (-30.0 30.0)
  end
  begin
     id 17 
     name lclavicle
     direction 0.916488 0.396539 0.0529676  
     length 3.51732  
     axis 0 0 0   XYZ
    dof ry rz
    limits (-20.0 10.0)
           (0.0 20.0)
  end
  begin
     id 18 
     name lhumerus
     direction 1 -4.4896e-011 8.36962e-028   
     length 5.45077   
     axis 180 -30 -90   XYZ
    dof rx ry rz
    limits (-60.0 90.0)
           (-90.0 90.0)
           (-90.0 90.0)
  end
  begin
     id 19
     name lradius
     direction 1 -4.48962e-011 3.01407e-027   
     length 3.05488   
     axis 180 -30 -90   XYZ
    dof rx
    limits (-10.0 170.0)
  end
  begin
     id 20
     name lwrist
     direction 1 -4.49002e-011 4.72961e-027   
     length 1.52744   
     axis -2.72261e-015 90 90   XYZ
    dof ry
    limits (-180.0 0.0)
 end
  begin
     id 21 
     name lhand
     direction 1 -4.4899e-011 9.45681e-027   
     length 0.638818   
     axis -6.0311e-015 90 90   XYZ
    dof rx rz
    limits (-90.0 90.0)
           (-45.0 45.0)
  end
  begin
     id 22 
     name lfingers
     direction 1 -4.48871e-011 1.88632e-026   
     length 0.515032   
     axis -1.20625e-014 90 90   XYZ
    dof rx
    limits (0.0 90.0)
  end
  begin
     id 23
     name lthumb
     direction 0.707107 -6.34964e-011 0.707107   
     length 0.739485   
     axis -90 45 6.32835e-014   XYZ
    dof rx rz
    limits (-45.0 45.0)
           (-45.0 45.0)
  end
  begin
     id 24 
     name rclavicle
     direction -0.949427 0.303202 0.0815894   
     length 3.76167  
     axis 0 0 0   XYZ 
    dof ry rz
    limits (-10.0 20.0)
           (-20.0 0.0)
  end
  begin
     id 25 
     name rhumerus
     direction -1 -4.48971e-011 -6.43969e-018  
     length 4.88702   
     axis 180 30 90   XYZ
    dof rx ry rz
    limits (-90.0 60.0)
           (-90.0 90.0)
           (-90.0 90.0)
  end
  begin
     id 26 
     name rradius
     direction -1 -4.48987e-011 5.46662e-027   
     length 3.22603   
     axis 180 30 90   XYZ
    dof rx
    limits (-10.0 170.0)
  end
  begin
     id 27 
     name rwrist
     direction -1 -4.48956e-011 4.72476e-027   
     length 1.61302   
     axis -2.72261e-015 -90 -90   XYZ
    dof ry
    limits (-180.0 0.0)
  end
  begin
     id 28
     name rhand
     direction -1 -4.4889e-011 9.43571e-027   
     length 0.716293   
     axis -6.0311e-015 -90 -90   XYZ
    dof rx rz
    limits (-90.0 90.0)
           (-45.0 45.0)
  end
  begin
     id 29
     name rfingers
     direction -1 -4.48887e-011 1.88701e-026   
     length 0.577494   
     axis -1.20625e-014 -90 -90   XYZ
    dof rx
    limits (0.0 90.0)
  end
  begin
     id 30
     name rthumb
     direction -0.707107 -6.34825e-011 0.707107   
     length 0.829169   
     axis -90 -45 -6.32835e-014   XYZ
    dof rx rz
    limits (-45.0 45.0)
           (-45.0 45.0)
  end
:hierarchy
  begin
    root lhipjoint rhipjoint lowerback
    lhipjoint lfemur
    lfemur ltibia
    ltibia lfoot
    lfoot ltoes
    rhipjoint rfemur
    rfemur rtibia
    rtibia rfoot
    rfoot rtoes
    lowerback upperback
    upperback thorax
    thorax lowerneck lclavicle rclavicle
    lowerneck upperneck
    upperneck head
    lclavicle lhumerus
    lhumerus lradius
    lradius lwrist
    lwrist lhand lthumb
    lhand lfingers
    rclavicle rhumerus
    rhumerus rradius
    rradius rwrist
    rwrist rhand rthumb
    rhand rfingers
  end

#!OML:ASF F:\VICON\USERDATA\INSTALL\rory3\rory3.ASF
:FULLY-SPECIFIED
:DEGREES
2613
root 1.58898 18.5165 0.292207 -344.852 60.9741 -357.167
lowerback -8.84874 -2.21014 -0.881542
upperback -2.80795 -2.79445 -0.583536
thorax 2.05961 -1.37221 -0.39858
lowerneck -11.3055 11.1435 13.5618
upperneck 19.3296 14.3782 -6.72059
head 9.4407 7.14407 -2.6618
rclavicle 2.85629e-014 1.09332e-014
rhumerus -9.57974 23.144 -30.3791
rradius 117.673
rwrist -13.7657
rhand -28.871 13.6592
rfingers 7.12502
rthumb -2.22712 -16.3089
lclavicle 2.85629e-014 1.09332e-014
lhumerus -49.8573 -17.5587 90.1996
lradius 41.1541
lwrist 19.6031
lhand -8.59702 25.1088
lfingers 7.12502
lthumb 17.3343 54.3558
rfemur -16.6956 22.6485 7.17054
rtibia 5.65767
rfoot -4.59098 3.56596
rtoes 1.93389
lfemur -10.1239 12.783 -23.1607
ltibia 14.2253
lfoot -17.4118 18.924
ltoes -23.3183
2614
root 1.58798 18.5176 0.298653 -344.957 60.9989 -357.214
lowerback -8.85719 -2.21222 -0.807125
upperback -2.73443 -2.80562 -0.546896
thorax 2.13857 -1.37853 -0.405882
lowerneck -11.139 11.5433 13.7607
upperneck 19.2755 14.9819 -6.9749
head 9.49559 7.41763 -2.68931
rclavicle 1.93815e-014 -2.06736e-014
rhumerus -10.9094 24.7555 -32.4763
rradius 116.712
rwrist -11.7353
rhand -29.2684 13.9749
rfingers 7.12502
rthumb -2.6109 -15.9889
lclavicle 1.93815e-014 -2.06736e-014
lhumerus -49.7281 -17.4155 90.3012
lradius 40.8978
lwrist 19.3907
lhand -8.49214 25.4041
lfingers 7.12502
lthumb 17.4353 54.6422
rfemur -16.5797 22.6582 7.26732
rtibia 5.6332
rfoot -4.60819 3.57641
rtoes 2.23518
lfemur -10.0329 12.7341 -23.0894
ltibia 14.216
lfoot -17.4123 18.969
ltoes -23.1708
2615
root 1.58274 18.5182 0.306667 -345.033 61.0157 -357.269
lowerback -8.86945 -2.20953 -0.795556
upperback -2.68778 -2.80527 -0.487893
thorax 2.196 -1.37876 -0.35328
lowerneck -10.8909 11.8998 14.0257
upperneck 19.1935 15.5465 -7.32762
head 9.53876 7.67135 -2.76913
rclavicle 5.11125e-014 5.1684e-015
rhumerus -12.3094 26.3534 -34.6162
rradius 115.673
rwrist -9.83769
rhand -29.9741 14.5842
rfingers 7.12502
rthumb -3.29242 -15.3702
lclavicle 5.11125e-014 5.1684e-015
lhumerus -49.5292 -17.4462 90.5474
lradius 40.4118
lwrist 19.2987
lhand -8.68731 25.5223
lfingers 7.12502
lthumb 17.2474 54.777
rfemur -16.5355 22.6719 7.36452
rtibia 5.62955
rfoot -4.63862 3.58166
rtoes 1.84303
lfemur -10.0114 12.7709 -23.0142
ltibia 14.2136
lfoot -17.3509 18.9048
ltoes -23.0414
2616
root 1.57676 18.519 0.312037 -345.17 61.019 -357.427
lowerback -8.86032 -2.15654 -0.692884
upperback -2.69341 -2.74528 -0.447738
thorax 2.18226 -1.34883 -0.362421
lowerneck -10.5546 12.1951 14.3543
upperneck 19.0622 16.03 -7.70712
head 9.55117 7.89307 -2.88476
rclavicle -7.55506e-014 -1.41137e-014
rhumerus -13.9325 27.8985 -36.9522
rradius 114.554
rwrist -7.93609
rhand -31.0017 15.3022
rfingers 7.12502
rthumb -4.28475 -14.6344
lclavicle -7.55506e-014 -1.41137e-014
lhumerus -49.3793 -17.4714 90.7176
lradius 39.8996
lwrist 19.0712
lhand -8.79716 25.6452
lfingers 7.12502
lthumb 17.1417 54.909
rfemur -16.4931 22.7047 7.49068
rtibia 5.5414
rfoot -4.61244 3.54269
rtoes 1.28363
lfemur -10.0454 12.7551 -22.9
ltibia 14.2539
lfoot -17.4007 18.9075
ltoes -23.0261
2617
root 1.57136 18.5174 0.317641 -345.203 61.0022 -357.432
lowerback -8.79579 -2.12022 -0.679726
upperback -2.71097 -2.70031 -0.406051
thorax 2.12992 -1.32643 -0.319071
lowerneck -10.2682 12.4803 14.5621
upperneck 19.0155 16.5093 -8.01574
head 9.58767 8.11075 -2.95515
rclavicle -1.67787e-014 -1.33186e-014
rhumerus -15.4984 29.3125 -39.3394
rradius 113.29
rwrist -6.18575
rhand -31.8636 15.9685
rfingers 7.12502
rthumb -5.11701 -13.9497
lclavicle -1.67787e-014 -1.33186e-014
lhumerus -49.2792 -17.3847 90.855
lradius 39.4835
lwrist 18.8764
lhand -8.58731 25.6852
lfingers 7.12502
lthumb 17.3437 54.9314
rfemur -16.4378 22.7365 7.5278
rtibia 5.46903
rfoot -4.58284 3.47401
rtoes 1.03868
lfemur -10.0262 12.6974 -22.8735
ltibia 14.2852
lfoot -17.4045 19.0147
ltoes -23.4596
2618
root 1.57062 18.517 0.3245 -345.26 60.9745 -357.492
lowerback -8.85477 -2.06078 -0.602614
upperback -2.67601 -2.62816 -0.388953
thorax 2.19591 -1.2906 -0.34014
lowerneck -10.1649 12.7389 14.6942
upperneck 19.0398 16.9176 -8.21021
head 9.65824 8.29406 -2.97538
rclavicle -2.35995e-014 -1.88845e-015
rhumerus -17.0133 30.4482 -41.7875
rradius 111.927
rwrist -4.90616
rhand -32.0409 16.569
rfingers 7.12502
rthumb -5.28818 -13.345
lclavicle -2.35995e-014 -1.88845e-015
lhumerus -49.1181 -17.4662 91.034
lradius 39.0778
lwrist 18.8368
lhand -8.54759 25.5085
lfingers 7.12502
lthumb 17.3819 54.7513
rfemur -16.4175 22.7771 7.56696
rtibia 5.41842
rfoot -4.5364 3.50714
rtoes 1.12295
lfemur -10.0148 12.7759 -22.8216
ltibia 14.2957
lfoot -17.4249 18.9397
ltoes -23.3397
2619
root 1.5682 18.517 0.331619 -345.275 60.9758 -357.481
lowerback -8.85168 -2.01402 -0.563785
upperback -2.66043 -2.56967 -0.389758
thorax 2.20858 -1.26156 -0.35674
lowerneck -9.97016 12.9948 14.8718
upperneck 18.9883 17.3201 -8.40343
head 9.69075 8.48118 -3.00834
rclavicle 4.22666e-014 1.00386e-014
rhumerus -18.6573 31.4472 -44.4236
rradius 110.507
rwrist -3.59624
rhand -32.3784 16.4519
rfingers 7.12502
rthumb -5.61411 -13.4537
lclavicle 4.22666e-014 1.00386e-014
lhumerus -48.9947 -17.5225 91.1647
lradius 38.6329
lwrist 18.7664
lhand -8.37713 25.1409
lfingers 7.12502
lthumb 17.5459 54.3691
rfemur -16.3353 22.7913 7.60756
rtibia 5.35422
rfoot -4.52364 3.46702
rtoes 1.31783
lfemur -9.98322 12.7582 -22.7775
ltibia 14.3169
lfoot -17.6138 18.8314
ltoes -22.5269
2620
root 1.5677 18.5179 0.335053 -345.172 60.957 -357.394
lowerback -8.91884 -1.9691 -0.527579
upperback -2.66462 -2.51174 -0.401506
thorax 2.23928 -1.23244 -0.385349
lowerneck -9.64639 13.2377 15.1324
upperneck 18.8412 17.732 -8.72876
head 9.69064 8.67174 -3.10436
rclavicle 2.34814e-015 -7.95139e-016
rhumerus -20.2366 32.3225 -47.1137
rradius 108.796
rwrist -1.74789
rhand -33.2713 16.0469
rfingers 7.12502
rthumb -6.47616 -13.8341
lclavicle 2.34814e-015 -7.95139e-016
lhumerus -48.8652 -17.5475 91.2986
lradius 38.2211
lwrist 18.6218
lhand -8.22886 25.1229
lfingers 7.12502
lthumb 17.6886 54.3383
rfemur -16.27 22.8 7.56918
rtibia 5.19205
rfoot -4.48823 3.45827
rtoes 1.34543
lfemur -10.0334 12.7289 -22.8186
ltibia 14.3628
lfoot -17.5569 18.886
ltoes -22.9057
2621
root 1.56485 18.5173 0.339853 -345.221 60.9453 -357.514
lowerback -9.02306 -1.89845 -0.37075
upperback -2.66296 -2.43011 -0.413775
thorax 2.29158 -1.19132 -0.480841
lowerneck -9.46655 13.4773 15.3623
upperneck 18.8671 18.1083 -8.90808
head 9.75747 8.85109 -3.14048
rclavicle 7.93461e-014 -1.55052e-014
rhumerus -21.8287 32.8635 -49.7842
rradius 107.072
rwrist 0.0919084
rhand -33.5314 16.0075
rfingers 7.12502
rthumb -6.72718 -13.8657
lclavicle 7.93461e-014 -1.55052e-014
lhumerus -48.7305 -17.7394 91.471
lradius 37.7984
lwrist 18.5383
lhand -8.27445 25.0946
lfingers 7.12502
lthumb 17.6448 54.3139
rfemur -16.3305 22.8224 7.62621
rtibia 5.15409
rfoot -4.50308 3.40381
rtoes 0.895678
lfemur -10.1 12.7038 -22.749
ltibia 14.3646
lfoot -17.5604 18.927
ltoes -22.9413
2622
root 1.56146 18.5185 0.345516 -345.451 61.0081 -357.775
lowerback -9.05123 -1.84619 -0.165688
upperback -2.65517 -2.38048 -0.365241
thorax 2.3091 -1.16633 -0.541437
lowerneck -9.31104 13.6896 15.496
upperneck 18.9785 18.4555 -9.02114
head 9.83983 9.01601 -3.14289
rclavicle -3.79244e-014 -6.75868e-015
rhumerus -23.2735 33.4277 -52.2363
rradius 105.388
rwrist 1.52653
rhand -33.547 16.1708
rfingers 7.12502
rthumb -6.74233 -13.7018
lclavicle -3.79244e-014 -6.75868e-015
lhumerus -48.5234 -17.7891 91.6368
lradius 37.2793
lwrist 18.4481
lhand -8.33433 24.8732
lfingers 7.12502
lthumb 17.5871 54.0978
rfemur -16.3128 22.8126 7.82728
rtibia 5.12947
rfoot -4.47753 3.38249
rtoes 0.407667
lfemur -10.1116 12.6966 -22.5709
ltibia 14.3652
lfoot -17.5149 18.9369
ltoes -23.1619
2623
root 1.55448 18.519 0.351083 -345.193 61.0354 -357.432
lowerback -8.99797 -1.83422 -0.250657
upperback -2.65399 -2.35545 -0.429081
thorax 2.28183 -1.15414 -0.555115
lowerneck -9.10644 13.8772 15.7258
upperneck 18.9667 18.7805 -9.28015
head 9.89367 9.16613 -3.21565
rclavicle -7.28235e-014 9.93923e-017
rhumerus -24.7287 34.0503 -54.7081
rradius 103.642
rwrist 2.82137
rhand -34.0289 16.421
rfingers 7.12502
rthumb -7.20742 -13.4363
lclavicle -7.28235e-014 9.93923e-017
lhumerus -48.3203 -17.8776 91.7338
lradius 36.7968
lwrist 18.3845
lhand -8.29936 24.9396
lfingers 7.12502
lthumb 17.6208 54.1611
rfemur -16.174 22.766 7.73106
rtibia 5.00616
rfoot -4.45456 3.33599
rtoes 0.104565
lfemur -10.1088 12.7343 -22.715
ltibia 14.4031
lfoot -17.4633 18.884
ltoes -23.0121
